{"title":"The.Crazies.2010.SWESUB.DVDRip.XviD.AC3.(5.1).-Zen_Bud","uid":5665969,"size":1469524914,"categoryP":"video","categoryS":"movies","magnet":"?xt=urn:btih:b3e700441a1d5cc9e0d056dca8680e594f92fcba&amp;dn=The.Crazies.2010.SWESUB.DVDRip.XviD.AC3.%285.1%29.-Zen_Bud&amp;tr=udp%3A%2F%2Ftracker.openbittorrent.com%3A80&amp;tr=udp%3A%2F%2Fopen.demonii.com%3A1337&amp;tr=udp%3A%2F%2Ftracker.coppersurfer.tk%3A6969&amp;tr=udp%3A%2F%2Fexodus.desync.com%3A6969","seeders":0,"leechers":1,"uploader":"Zen_Bud","files":-1,"time":1278144842,"description":"General\nComplete name                    : The.Crazies.avi\nFormat                           : AVI\nFile size                        : 1.37 GiB\nDuration                         : 1h 40mn\nOverall bit rate                 : 1 951 Kbps\n\nVideo\n\nFormat                           : MPEG-4 Visual\nCodec ID/Hint                    : XviD\nDuration                         : 1h 40mn\nBit rate                         : 1 492 Kbps\nWidth                            : 720 pixels\nHeight                           : 356 pixels\nDisplay aspect ratio             : 2.35:1\nStream size                      : 1.05 GiB (76%)\nWriting library                  : XviD 1.1.2 (UTC 2006-11-01)\n\nAudio\n\nFormat                           : AC-3\nDuration                         : 1h 40mn\nBit rate                         : 448 Kbps\nChannel(s)                       : 6 channels\nChannel positions                : Front: L C R, Side: L R, LFE\nSampling rate                    : 48.0 KHz\nStream size                      : 322 MiB (23%)\n\n\n","torrent":{"xt":"urn:btih:b3e700441a1d5cc9e0d056dca8680e594f92fcba","amp;dn":"The.Crazies.2010.SWESUB.DVDRip.XviD.AC3.%285.1%29.-Zen_Bud","amp;tr":["udp%3A%2F%2Ftracker.openbittorrent.com%3A80","udp%3A%2F%2Fopen.demonii.com%3A1337","udp%3A%2F%2Ftracker.coppersurfer.tk%3A6969","udp%3A%2F%2Fexodus.desync.com%3A6969"],"infoHash":"b3e700441a1d5cc9e0d056dca8680e594f92fcba","infoHashBuffer":{"type":"Buffer","data":[179,231,0,68,26,29,92,201,224,208,86,220,168,104,14,89,79,146,252,186]},"announce":[],"urlList":[]}}